<?xml version="1.0" encoding="utf-8"?>
<!-- Generator: Adobe Illustrator 16.0.0, SVG Export Plug-In . SVG Version: 6.00 Build 0)  -->
<!DOCTYPE svg PUBLIC "-//W3C//DTD SVG 1.1//EN" "http://www.w3.org/Graphics/SVG/1.1/DTD/svg11.dtd">
<svg version="1.1" id="Laag_1" xmlns="http://www.w3.org/2000/svg" xmlns:xlink="http://www.w3.org/1999/xlink" x="0px" y="0px"
	 width="425.885px" height="314.001px" viewBox="208.004 82.034 425.885 314.001"
	 enable-background="new 208.004 82.034 425.885 314.001" xml:space="preserve">
<g>
	<g>
		<path fill="#CAD400" d="M144.202,438.013c0,0,0.719,2.02,0.719,4.736c0,2.797-0.719,4.877-0.719,4.877h-12.479v41.387
			c0,0-2.295,0.65-5.74,0.65c-3.799,0-5.664-0.65-5.664-0.65v-41.387h-12.84c0,0-0.721-1.861-0.721-4.729
			c0-2.868,0.721-4.887,0.721-4.887L144.202,438.013L144.202,438.013z"/>
		<path fill="#CAD400" d="M182.228,438.664c0,0,2.224-0.65,5.734-0.65c3.52,0,5.74,0.65,5.74,0.65v50.35c0,0-2.153,0.65-5.667,0.65
			c-3.875,0-5.811-0.65-5.811-0.65v-21.154h-16.142v21.154c0,0-2.295,0.65-5.738,0.65c-3.801,0-5.736-0.65-5.736-0.65v-50.35
			c0,0,2.153-0.65,5.667-0.65c3.587,0,5.811,0.65,5.811,0.65v19.865h16.142V438.664L182.228,438.664z"/>
		<path fill="#CAD400" d="M238.539,438.013c0.36,1.082,0.724,2.584,0.724,4.168c0,1.721-0.291,3.365-0.724,4.594h-19.938v12.479
			h16.354c0.356,1.219,0.716,2.512,0.716,4.229c0,1.795-0.283,3.156-0.716,4.447h-16.354v12.982h20.66
			c0.428,1.146,0.716,2.725,0.716,4.301c0,1.582-0.216,3.158-0.716,4.451h-32.136v-51.65L238.539,438.013L238.539,438.013z"/>
		<path fill="#CAD400" d="M269.967,438.013c4.732,0,7.243,0.65,7.243,0.65l16.354,50.35c0,0-2.007,0.65-6.023,0.65
			c-3.729,0-5.521-0.65-5.521-0.65l-3.372-10.473h-18.004l-3.372,10.473c0,0-2.081,0.65-5.595,0.65c-3.372,0-5.312-0.65-5.312-0.65
			l16.354-50.35C262.723,438.664,265.448,438.013,269.967,438.013z M269.467,448.779c0,0-0.504,3.869-1.938,8.391l-4.231,12.98
			h12.694l-4.16-12.98c-1.504-4.59-2.08-8.391-2.08-8.391H269.467z"/>
		<path fill="#CAD400" d="M331.806,438.013c0,0,0.716,2.02,0.716,4.736c0,2.797-0.716,4.877-0.716,4.877h-12.48v41.387
			c0,0-2.298,0.65-5.736,0.65c-3.806,0-5.667-0.65-5.667-0.65v-41.387h-12.839c0,0-0.72-1.861-0.72-4.729
			c0-2.868,0.72-4.887,0.72-4.887L331.806,438.013L331.806,438.013z"/>
		<path fill="#CAD400" d="M373.698,438.013c0.361,1.082,0.722,2.584,0.722,4.168c0,1.721-0.287,3.365-0.722,4.594h-19.938v12.479
			h16.353c0.356,1.219,0.719,2.512,0.719,4.229c0,1.795-0.286,3.156-0.719,4.447h-16.353v12.982h20.657
			c0.431,1.146,0.716,2.725,0.716,4.301c0,1.582-0.212,3.158-0.716,4.451h-32.137v-51.65L373.698,438.013L373.698,438.013z"/>
		<path fill="#CAD400" d="M405.629,438.013c10.974,0,16.929,6.391,16.929,15.859c0,6.738-3.229,12.049-8.97,14.342l11.688,20.799
			c0,0-2.363,0.65-6.521,0.65c-4.02,0-6.313-0.65-6.313-0.65l-10.615-19.359h-4.445v19.359c0,0-2.152,0.65-5.664,0.65
			c-3.875,0-5.813-0.65-5.813-0.65v-51H405.629L405.629,438.013z M397.379,460.755h6.599c4.378,0,6.6-2.512,6.6-6.883
			c0-4.451-2.222-6.963-6.6-6.963h-6.599V460.755z"/>
		<path fill="#747373" d="M464.955,438.445c0.572-0.213,1.51-0.434,2.728-0.434c1.22,0,2.296,0.221,2.869,0.434l-16.644,23.813
			l18.724,26.975c0,0-1.004,0.432-3.084,0.432c-1.938,0-3.157-0.432-3.157-0.432l-16.854-24.174h-7.389v24.174
			c0,0-0.789,0.432-2.653,0.432c-1.724,0-2.652-0.432-2.652-0.432v-50.787c0,0,0.932-0.434,2.727-0.434
			c1.719,0,2.582,0.434,2.582,0.434v22.166h7.314L464.955,438.445z"/>
		<path fill="#747373" d="M484.401,438.445c0,0,0.936-0.434,2.651-0.434c1.795,0,2.657,0.434,2.657,0.434V485h22.445
			c0.146,0.502,0.359,1.365,0.359,2.293c0,1.006-0.216,1.795-0.359,2.371H484.4L484.401,438.445L484.401,438.445z"/>
		<path fill="#747373" d="M541.073,438.013c1.865,0,2.941,0.436,2.941,0.436l19.004,50.787c0,0-0.931,0.432-2.938,0.432
			c-1.723,0-2.584-0.432-2.584-0.432l-5.163-13.697h-22.883l-5.233,13.697c0,0-0.858,0.432-2.582,0.432s-2.511-0.432-2.511-0.432
			l19.01-50.787C538.135,438.445,539.279,438.013,541.073,438.013z M540.785,444.189c0,0-0.432,2.15-1.436,4.945l-8.319,21.945
			h19.726l-8.318-21.945c-1.005-2.869-1.436-4.945-1.436-4.945H540.785z"/>
		<path fill="#747373" d="M589.213,437.3c8.244,0,13.556,1.939,13.556,1.939c0,1.504-0.503,3.08-1.436,4.158
			c0,0-5.164-1.51-11.405-1.51c-8.393,0-12.406,3.52-12.406,9.398c0,6.523,6.098,7.963,13.198,10.043
			c6.956,2.145,13.982,4.875,13.982,14.561c0,9.184-6.235,14.488-17.501,14.488c-9.106,0-14.991-2.869-14.991-2.869
			c0-1.438,0.504-3.088,1.363-4.23c0,0,6.526,2.223,13.271,2.223c8.104,0,12.409-3.297,12.409-9.539
			c0-6.238-4.948-8.104-10.614-9.756c-7.604-2.363-16.43-4.232-16.43-14.633C572.211,442.97,578.022,437.3,589.213,437.3z"/>
		<path fill="#747373" d="M629.175,438.664c0,0,1.935-0.65,5.734-0.65c3.586,0,5.736,0.65,5.736,0.65v36.367
			c0,10.182-6.383,15.35-15.922,15.35c-7.104,0-11.907-2.438-11.907-2.438c-0.072-2.939,0.936-6.166,2.94-8.246
			c0,0,3.013,1.146,6.313,1.146c4.23,0,7.104-1.725,7.104-6.891L629.175,438.664L629.175,438.664z"/>
		<path fill="#747373" d="M673.577,438.013c10.976,0,16.931,6.391,16.931,15.859c0,6.738-3.23,12.049-8.969,14.342l11.691,20.799
			c0,0-2.368,0.65-6.528,0.65c-4.018,0-6.313-0.65-6.313-0.65l-10.615-19.359h-4.448v19.359c0,0-2.146,0.65-5.665,0.65
			c-3.874,0-5.811-0.65-5.811-0.65v-51H673.577L673.577,438.013z M665.325,460.755h6.604c4.375,0,6.597-2.512,6.597-6.883
			c0-4.451-2.222-6.963-6.597-6.963h-6.604V460.755z"/>
		<path fill="#747373" d="M702.849,438.664c0,0,2.154-0.65,5.668-0.65c3.588,0,5.81,0.65,5.81,0.65v41.674h20.085
			c0.503,1.438,0.722,3.086,0.722,4.662s-0.29,3.154-0.722,4.664h-31.563V438.664L702.849,438.664z"/>
	</g>
	<g>
		<path fill="#D9D8D8" d="M585.182,239.035c0-86.706-70.295-157.001-157-157.001c-86.707,0-157,70.291-157,157.001
			s70.293,157,157,157C514.887,396.035,585.182,325.746,585.182,239.035z"/>
		<path fill="#747373" d="M420.707,104.184c0,0-17.688,14.875-42.325,10.142c-24.637-4.738-51.188,3.152-62.482,18.376
			c-16.146-9.928-43.729-7.374-64.829,6.188c-21.11,13.556-43.066,6.328-43.066,6.328s11.762,60.944,19.062,98.768
			c11.329,58.732,70.415,108.973,129.148,97.639c58.738-11.33,94.894-79.939,83.563-138.678
			C435.116,178.828,420.707,104.184,420.707,104.184z"/>
		<path fill="#FFFFFF" d="M352.44,220.047c0,0-1.928-30.271,28.457-23.229c17.244,4.002,23.248,13.256,23.248,13.256
			s-7.44,6.294-14.977,7.746C381.438,219.31,352.44,220.047,352.44,220.047z"/>
		<path fill="#FFFFFF" d="M351.906,167.873c0,0,9.798,20.964,42.438,8.153c4.341-1.711,3.879-15.523-10.985-8.705
			C371.204,172.901,359.239,170.442,351.906,167.873z"/>
		<path fill="#FFFFFF" d="M314.477,227.371c0,0-9.474-28.82-35.053-10.974c-14.52,10.123-16.65,20.944-16.65,20.944
			s9.244,3.079,16.781,1.626C287.29,237.476,314.477,227.371,314.477,227.371z"/>
		<path fill="#FFFFFF" d="M286.977,298.757c14.487-27.545,93.944-42.874,117.635-22.695c-3.763-11.295-21.1-29.787-65.256-22.244
			v-0.004c-0.015,0.004-0.029,0.006-0.039,0.014c-0.015,0-0.027,0-0.046,0.004l0.004,0.002
			C295.479,263.259,286.268,286.87,286.977,298.757z"/>
		<path fill="#FFFFFF" d="M295.73,178.711c0,0-1.296,23.097-36.357,23.354c-4.666,0.033-9.375-12.969,6.95-12.166
			C279.692,190.563,289.877,183.824,295.73,178.711z"/>
		<path fill="#CAD400" d="M633.889,186.925c0,0-21.818,7.622-43.17-5.563c-21.34-13.188-48.959-15.25-64.933-5.031
			c-11.563-15.025-38.254-22.439-62.801-17.266c-24.543,5.17-42.5-9.394-42.5-9.394s-10.674,61.144-17.298,99.088
			c-10.283,58.929,27.079,126.886,86.01,137.179c58.935,10.278,117.115-40.992,127.402-99.92
			C620.825,261.821,633.889,186.925,633.889,186.925z"/>
		<path fill="#FFFFFF" d="M528.895,270.957c0,0,8.961-28.979,34.855-11.588c14.692,9.86,17.02,20.647,17.02,20.647
			s-9.191,3.23-16.752,1.914C556.26,280.58,528.895,270.957,528.895,270.957z"/>
		<path fill="#FFFFFF" d="M586.811,246.409c0,0-1.713-23.071-36.773-22.704c-4.666,0.048-9.143,13.129,7.168,12.038
			C570.555,234.851,580.866,241.399,586.811,246.409z"/>
		<path fill="#FFFFFF" d="M490.809,264.308c0,0,1.391-30.303-28.865-22.713c-17.168,4.297-23.014,13.659-23.014,13.659
			s7.557,6.161,15.108,7.479C461.805,264.092,490.809,264.308,490.809,264.308z"/>
		<path fill="#FFFFFF" d="M563.629,308.166c-23.328,20.594-103.043,6.674-118.021-20.604c-0.498,11.896,9.125,35.336,53.084,43.984
			v0.004c0.019,0.008,0.027,0.008,0.037,0.008c0.021,0.006,0.033,0.006,0.049,0.012v-0.006
			C543.068,338.317,560.07,319.521,563.629,308.166z"/>
		<path fill="#FFFFFF" d="M444.803,221.618c0,0,9.428-21.133,42.289-8.9c4.373,1.624,4.149,15.45-10.824,8.895
			C464.012,216.249,452.094,218.917,444.803,221.618z"/>
	</g>
	<g>
		<rect x="105.287" y="416.287" fill="#747373" width="631.314" height="2.166"/>
		<rect x="105.287" y="511.082" fill="#747373" width="631.314" height="2.164"/>
	</g>
</g>
</svg>
