<?xml version="1.0" encoding="utf-8"?>
<!-- Generator: Adobe Illustrator 15.1.0, SVG Export Plug-In . SVG Version: 6.00 Build 0)  -->
<!DOCTYPE svg PUBLIC "-//W3C//DTD SVG 1.1//EN" "http://www.w3.org/Graphics/SVG/1.1/DTD/svg11.dtd">
<svg version="1.1" id="Laag_1" xmlns="http://www.w3.org/2000/svg" xmlns:xlink="http://www.w3.org/1999/xlink" x="0px" y="0px"
	 width="841.89px" height="595.28px" viewBox="0 0 841.89 595.28" enable-background="new 0 0 841.89 595.28" xml:space="preserve">
<g>
	<g>
		<path fill="#CAD400" d="M144.202,438.014c0,0,0.719,2.016,0.719,4.736c0,2.797-0.719,4.877-0.719,4.877h-12.479v41.387
			c0,0-2.295,0.65-5.74,0.65c-3.799,0-5.664-0.65-5.664-0.65v-41.387h-12.84c0,0-0.719-1.861-0.719-4.73
			c0-2.867,0.719-4.883,0.719-4.883H144.202z"/>
		<path fill="#CAD400" d="M182.228,438.664c0,0,2.223-0.65,5.736-0.65c3.518,0,5.74,0.65,5.74,0.65v50.35c0,0-2.153,0.65-5.667,0.65
			c-3.875,0-5.81-0.65-5.81-0.65v-21.158h-16.14v21.158c0,0-2.295,0.65-5.74,0.65c-3.799,0-5.736-0.65-5.736-0.65v-50.35
			c0,0,2.153-0.65,5.667-0.65c3.587,0,5.81,0.65,5.81,0.65v19.865h16.14V438.664z"/>
		<path fill="#CAD400" d="M238.539,438.014c0.361,1.082,0.722,2.584,0.722,4.168c0,1.717-0.291,3.365-0.722,4.59h-19.938v12.48
			h16.354c0.357,1.219,0.716,2.512,0.716,4.227c0,1.795-0.285,3.16-0.716,4.451h-16.354v12.982h20.66
			c0.428,1.146,0.716,2.725,0.716,4.301c0,1.582-0.216,3.158-0.716,4.451h-32.134v-51.65H238.539z"/>
		<path fill="#CAD400" d="M269.967,438.014c4.732,0,7.243,0.65,7.243,0.65l16.354,50.35c0,0-2.007,0.65-6.024,0.65
			c-3.729,0-5.521-0.65-5.521-0.65l-3.372-10.473h-18.004l-3.372,10.473c0,0-2.081,0.65-5.595,0.65c-3.372,0-5.31-0.65-5.31-0.65
			l16.355-50.35C262.723,438.664,265.448,438.014,269.967,438.014z M269.467,448.779c0,0-0.504,3.869-1.938,8.391l-4.232,12.98
			h12.694l-4.16-12.98c-1.504-4.59-2.08-8.391-2.08-8.391H269.467z"/>
		<path fill="#CAD400" d="M331.806,438.014c0,0,0.716,2.016,0.716,4.736c0,2.797-0.716,4.877-0.716,4.877h-12.48v41.387
			c0,0-2.298,0.65-5.739,0.65c-3.803,0-5.667-0.65-5.667-0.65v-41.387h-12.837c0,0-0.719-1.861-0.719-4.73
			c0-2.867,0.719-4.883,0.719-4.883H331.806z"/>
		<path fill="#CAD400" d="M373.699,438.014c0.361,1.082,0.719,2.584,0.719,4.168c0,1.717-0.287,3.365-0.719,4.59h-19.938v12.48
			h16.353c0.356,1.219,0.719,2.512,0.719,4.227c0,1.795-0.289,3.16-0.719,4.451h-16.353v12.982h20.657
			c0.431,1.146,0.716,2.725,0.716,4.301c0,1.582-0.212,3.158-0.716,4.451h-32.134v-51.65H373.699z"/>
		<path fill="#CAD400" d="M405.627,438.014c10.974,0,16.929,6.387,16.929,15.859c0,6.738-3.229,12.049-8.97,14.342l11.691,20.799
			c0,0-2.363,0.65-6.524,0.65c-4.017,0-6.313-0.65-6.313-0.65l-10.615-19.363h-4.448v19.363c0,0-2.152,0.65-5.664,0.65
			c-3.875,0-5.81-0.65-5.81-0.65v-51H405.627z M397.377,460.756h6.599c4.378,0,6.6-2.512,6.6-6.883c0-4.451-2.222-6.963-6.6-6.963
			h-6.599V460.756z"/>
		<path fill="#747373" d="M464.956,438.445c0.572-0.213,1.507-0.432,2.725-0.432c1.22,0,2.296,0.219,2.869,0.432l-16.641,23.814
			l18.721,26.973c0,0-1.004,0.432-3.084,0.432c-1.937,0-3.157-0.432-3.157-0.432l-16.854-24.172h-7.389v24.172
			c0,0-0.789,0.432-2.653,0.432c-1.724,0-2.655-0.432-2.655-0.432v-50.787c0,0,0.932-0.432,2.727-0.432
			c1.719,0,2.582,0.432,2.582,0.432v22.166h7.314L464.956,438.445z"/>
		<path fill="#747373" d="M484.401,438.445c0,0,0.933-0.432,2.651-0.432c1.795,0,2.657,0.432,2.657,0.432V485h22.448
			c0.144,0.502,0.359,1.365,0.359,2.293c0,1.006-0.216,1.795-0.359,2.371h-27.757V438.445z"/>
		<path fill="#747373" d="M541.073,438.014c1.865,0,2.941,0.432,2.941,0.432l19.004,50.787c0,0-0.931,0.432-2.937,0.432
			c-1.723,0-2.584-0.432-2.584-0.432l-5.164-13.697h-22.882l-5.236,13.697c0,0-0.858,0.432-2.582,0.432
			c-1.721,0-2.509-0.432-2.509-0.432l19.008-50.787C538.133,438.445,539.279,438.014,541.073,438.014z M540.786,444.188
			c0,0-0.432,2.154-1.436,4.949l-8.319,21.945h19.723l-8.318-21.945c-1.005-2.869-1.436-4.949-1.436-4.949H540.786z"/>
		<path fill="#747373" d="M589.211,437.301c8.247,0,13.556,1.939,13.556,1.939c0,1.504-0.503,3.08-1.434,4.158
			c0,0-5.164-1.508-11.407-1.508c-8.39,0-12.406,3.518-12.406,9.398c0,6.525,6.098,7.963,13.198,10.043
			c6.956,2.146,13.985,4.875,13.985,14.561c0,9.182-6.238,14.488-17.501,14.488c-9.109,0-14.993-2.869-14.993-2.869
			c0-1.438,0.503-3.088,1.365-4.232c0,0,6.526,2.223,13.269,2.223c8.104,0,12.41-3.297,12.41-9.539
			c0-6.238-4.949-8.107-10.615-9.756c-7.604-2.363-16.429-4.232-16.429-14.633C572.209,442.971,578.022,437.301,589.211,437.301z"/>
		<path fill="#747373" d="M629.173,438.664c0,0,1.935-0.65,5.737-0.65c3.586,0,5.736,0.65,5.736,0.65v36.367
			c0,10.182-6.383,15.35-15.922,15.35c-7.102,0-11.907-2.441-11.907-2.441c-0.072-2.939,0.933-6.166,2.94-8.246
			c0,0,3.013,1.148,6.313,1.148c4.23,0,7.102-1.725,7.102-6.891V438.664z"/>
		<path fill="#747373" d="M673.578,438.014c10.973,0,16.928,6.387,16.928,15.859c0,6.738-3.23,12.049-8.966,14.342l11.691,20.799
			c0,0-2.368,0.65-6.528,0.65c-4.018,0-6.313-0.65-6.313-0.65l-10.615-19.363h-4.448v19.363c0,0-2.147,0.65-5.665,0.65
			c-3.874,0-5.811-0.65-5.811-0.65v-51H673.578z M665.326,460.756h6.603c4.375,0,6.597-2.512,6.597-6.883
			c0-4.451-2.222-6.963-6.597-6.963h-6.603V460.756z"/>
		<path fill="#747373" d="M702.849,438.664c0,0,2.154-0.65,5.668-0.65c3.588,0,5.81,0.65,5.81,0.65v41.674h20.085
			c0.503,1.436,0.719,3.086,0.719,4.662s-0.29,3.154-0.719,4.664h-31.563V438.664z"/>
	</g>
	<g>
		<path fill="#D9D8D8" d="M585.182,239.035c0-86.706-70.295-157.001-157-157.001c-86.707,0-157,70.291-157,157.001
			c0,86.711,70.293,157,157,157C514.887,396.035,585.182,325.746,585.182,239.035z"/>
		<path fill="#747373" d="M420.708,104.184c0,0-17.69,14.875-42.328,10.142c-24.634-4.738-51.186,3.152-62.482,18.376
			c-16.148-9.928-43.729-7.374-64.829,6.188c-21.111,13.556-43.067,6.328-43.067,6.328s11.76,60.944,19.06,98.767
			c11.329,58.733,70.415,108.972,129.148,97.638c58.741-11.33,94.894-79.94,83.564-138.678
			C435.117,178.828,420.708,104.184,420.708,104.184z"/>
		<path fill="#FFFFFF" d="M352.44,220.047c0,0-1.928-30.27,28.457-23.23c17.244,4.002,23.248,13.255,23.248,13.255
			s-7.44,6.294-14.977,7.747C381.438,219.308,352.44,220.047,352.44,220.047z"/>
		<path fill="#FFFFFF" d="M351.906,167.873c0,0,9.798,20.964,42.438,8.154c4.341-1.71,3.879-15.524-10.985-8.706
			C371.205,172.902,359.239,170.443,351.906,167.873z"/>
		<path fill="#FFFFFF" d="M314.477,227.371c0,0-9.474-28.82-35.051-10.973c-14.519,10.123-16.652,20.945-16.652,20.945
			s9.244,3.079,16.781,1.626C287.29,237.475,314.477,227.371,314.477,227.371z"/>
		<path fill="#FFFFFF" d="M286.977,298.757c14.487-27.545,93.944-42.873,117.635-22.697c-3.763-11.294-21.1-29.787-65.256-22.243
			v-0.004c-0.015,0.004-0.029,0.006-0.039,0.013c-0.015,0-0.027,0-0.046,0.004l0.004,0.002
			C295.479,263.259,286.268,286.87,286.977,298.757z"/>
		<path fill="#FFFFFF" d="M295.73,178.711c0,0-1.296,23.095-36.358,23.353c-4.666,0.034-9.375-12.968,6.951-12.165
			C279.692,190.562,289.877,183.824,295.73,178.711z"/>
		<path fill="#CAD400" d="M633.889,186.925c0,0-21.818,7.622-43.17-5.563c-21.34-13.188-48.959-15.251-64.93-5.032
			c-11.564-15.025-38.254-22.439-62.801-17.266c-24.543,5.171-42.5-9.393-42.5-9.393s-10.674,61.143-17.298,99.088
			c-10.283,58.928,27.079,126.885,86.01,137.178c58.932,10.279,117.115-40.992,127.402-99.92
			C620.826,261.821,633.889,186.925,633.889,186.925z"/>
		<path fill="#FFFFFF" d="M528.895,270.957c0,0,8.961-28.981,34.855-11.588c14.695,9.862,17.02,20.649,17.02,20.649
			s-9.191,3.23-16.752,1.913C556.258,280.58,528.895,270.957,528.895,270.957z"/>
		<path fill="#FFFFFF" d="M586.811,246.409c0,0-1.713-23.071-36.773-22.704c-4.666,0.048-9.143,13.129,7.168,12.038
			C570.555,234.849,580.867,241.4,586.811,246.409z"/>
		<path fill="#FFFFFF" d="M490.809,264.307c0,0,1.391-30.302-28.865-22.712c-17.168,4.296-23.014,13.659-23.014,13.659
			s7.557,6.161,15.111,7.48C461.805,264.092,490.809,264.307,490.809,264.307z"/>
		<path fill="#FFFFFF" d="M563.627,308.166c-23.328,20.594-103.043,6.674-118.018-20.605c-0.498,11.898,9.125,35.337,53.084,43.985
			v0.005c0.016,0.006,0.027,0.006,0.037,0.006c0.021,0.006,0.033,0.006,0.049,0.012v-0.006
			C543.068,338.319,560.07,319.522,563.627,308.166z"/>
		<path fill="#FFFFFF" d="M444.803,221.618c0,0,9.428-21.131,42.289-8.9c4.373,1.624,4.152,15.45-10.824,8.894
			C464.012,216.249,452.092,218.917,444.803,221.618z"/>
	</g>
	<g>
		<rect x="105.287" y="416.287" fill="#747373" width="631.315" height="2.166"/>
		<rect x="105.287" y="511.082" fill="#747373" width="631.315" height="2.164"/>
	</g>
</g>
</svg>
