<svg xmlns="http://www.w3.org/2000/svg" xmlns:xlink="http://www.w3.org/1999/xlink" viewBox="0 0 631.31 431.21"><defs><style>.cls-1{fill:#cad400;}.cls-2{fill:#747373;}.cls-3{fill:url(#radial-gradient);}.cls-4{fill:#fff;}</style><radialGradient id="radial-gradient" cx="322.9" cy="157" r="157" gradientUnits="userSpaceOnUse"><stop offset="0" stop-color="#b2b2b2"/><stop offset="0.31" stop-color="#b6b6b6"/><stop offset="0.65" stop-color="#c4c4c4"/><stop offset="1" stop-color="#d9d9d9"/></radialGradient></defs><title>Asset 1</title><g id="Layer_2" data-name="Layer 2"><g id="Laag_1" data-name="Laag 1"><path class="cls-1" d="M38.91,356a15.52,15.52,0,0,1,.72,4.74,16.45,16.45,0,0,1-.72,4.88H26.44V407a23.14,23.14,0,0,1-5.74.65A19,19,0,0,1,15,407V365.59H2.19a14.32,14.32,0,0,1-.72-4.73A15.94,15.94,0,0,1,2.19,356Z"/><path class="cls-1" d="M76.94,356.63a25.65,25.65,0,0,1,11.48,0V407a21.49,21.49,0,0,1-5.67.65,20.12,20.12,0,0,1-5.81-.65V385.82H60.8V407a23.14,23.14,0,0,1-5.74.65,19.85,19.85,0,0,1-5.74-.65V356.63A21.49,21.49,0,0,1,55,356a22.71,22.71,0,0,1,5.81.65v19.86H76.94V356.63Z"/><path class="cls-1" d="M133.25,356a13.52,13.52,0,0,1,.72,4.17,14.36,14.36,0,0,1-.72,4.59H113.31v12.48h16.35a14.09,14.09,0,0,1,.72,4.23,13.43,13.43,0,0,1-.72,4.45H113.31v13H134a12.9,12.9,0,0,1,.72,4.3,12.64,12.64,0,0,1-.72,4.45H101.84V356h31.41Z"/><path class="cls-1" d="M164.68,356a32,32,0,0,1,7.24.65L188.28,407a21.59,21.59,0,0,1-6,.65,17.86,17.86,0,0,1-5.52-.65l-3.37-10.47h-18L152,407a20.56,20.56,0,0,1-5.6.65,18.28,18.28,0,0,1-5.31-.65l16.36-50.35A34.43,34.43,0,0,1,164.68,356Zm-.5,10.76a54.18,54.18,0,0,1-1.94,8.39l-4.23,13H170.7l-4.16-13a57.94,57.94,0,0,1-2.08-8.39Z"/><path class="cls-1" d="M226.52,356a15.58,15.58,0,0,1,.72,4.74,16.51,16.51,0,0,1-.72,4.88H214V407a23.16,23.16,0,0,1-5.74.65,19,19,0,0,1-5.67-.65V365.59H189.8a14.32,14.32,0,0,1-.72-4.73,15.94,15.94,0,0,1,.72-4.88Z"/><path class="cls-1" d="M268.41,356a13.52,13.52,0,0,1,.72,4.17,14.34,14.34,0,0,1-.72,4.59H248.47v12.48h16.35a14.12,14.12,0,0,1,.72,4.23,13.45,13.45,0,0,1-.72,4.45H248.47v13h20.66a12.83,12.83,0,0,1,.72,4.3,12.55,12.55,0,0,1-.72,4.45H237V356h31.41Z"/><path class="cls-1" d="M300.34,356c11,0,16.93,6.39,16.93,15.86,0,6.74-3.23,12-9,14.34L320,407a27.06,27.06,0,0,1-6.52.65,25.48,25.48,0,0,1-6.31-.65l-10.61-19.36h-4.45V407a21.47,21.47,0,0,1-5.66.65,20.12,20.12,0,0,1-5.81-.65V356h19.72Zm-8.25,22.74h6.6c4.38,0,6.6-2.51,6.6-6.88s-2.22-7-6.6-7h-6.6Z"/><path class="cls-2" d="M359.67,356.41a8,8,0,0,1,2.73-.43,9,9,0,0,1,2.87.43l-16.64,23.81,18.72,27a8.53,8.53,0,0,1-3.08.43,10.33,10.33,0,0,1-3.16-.43L344.25,383h-7.39V407.2a6,6,0,0,1-2.65.43,6.83,6.83,0,0,1-2.65-.43V356.41a7,7,0,0,1,2.73-.43,6.24,6.24,0,0,1,2.58.43v22.17h7.31Z"/><path class="cls-2" d="M379.11,356.41a6.83,6.83,0,0,1,2.65-.43,6.43,6.43,0,0,1,2.66.43V403h22.45a8.52,8.52,0,0,1,.36,2.29,9.21,9.21,0,0,1-.36,2.37H379.11V356.41Z"/><path class="cls-2" d="M435.79,356a8.59,8.59,0,0,1,2.94.43l19,50.79a7.62,7.62,0,0,1-2.94.43,6.23,6.23,0,0,1-2.58-.43L447,393.5H424.16l-5.24,13.7a6.21,6.21,0,0,1-2.58.43,5.64,5.64,0,0,1-2.51-.43l19-50.79A9.08,9.08,0,0,1,435.79,356Zm-.29,6.17a38.92,38.92,0,0,1-1.44,4.95L425.74,389h19.72l-8.32-21.95a43,43,0,0,1-1.44-4.95Z"/><path class="cls-2" d="M483.92,355.27a43.16,43.16,0,0,1,13.56,1.94,6.52,6.52,0,0,1-1.43,4.16,45.37,45.37,0,0,0-11.41-1.51c-8.39,0-12.41,3.52-12.41,9.4,0,6.52,6.1,8,13.2,10s14,4.88,14,14.56c0,9.18-6.24,14.49-17.5,14.49a37.08,37.08,0,0,1-15-2.87,7.41,7.41,0,0,1,1.36-4.23,47,47,0,0,0,13.27,2.22c8.1,0,12.41-3.3,12.41-9.54s-4.95-8.11-10.61-9.76c-7.6-2.36-16.43-4.23-16.43-14.63C466.92,360.94,472.73,355.27,483.92,355.27Z"/><path class="cls-2" d="M523.89,356.63a19.84,19.84,0,0,1,5.74-.65,21.73,21.73,0,0,1,5.74.65V393c0,10.18-6.38,15.35-15.92,15.35a28.55,28.55,0,0,1-11.91-2.44,11.79,11.79,0,0,1,2.94-8.25,20,20,0,0,0,6.31,1.15c4.23,0,7.1-1.73,7.1-6.89V356.63Z"/><path class="cls-2" d="M568.29,356c11,0,16.93,6.39,16.93,15.86,0,6.74-3.23,12-9,14.34L587.94,407a27.13,27.13,0,0,1-6.53.65,25.47,25.47,0,0,1-6.31-.65l-10.61-19.36H560V407a21.43,21.43,0,0,1-5.66.65,20.14,20.14,0,0,1-5.81-.65V356h19.73ZM560,378.72h6.6c4.38,0,6.6-2.51,6.6-6.88s-2.22-7-6.6-7H560Z"/><path class="cls-2" d="M597.56,356.63a21.51,21.51,0,0,1,5.67-.65,22.7,22.7,0,0,1,5.81.65V398.3h20.09a14.4,14.4,0,0,1,.72,4.66,17.18,17.18,0,0,1-.72,4.66H597.56v-51Z"/><path class="cls-3" d="M479.9,157a157,157,0,1,0-157,157A157,157,0,0,0,479.9,157Z"/><path class="cls-2" d="M315.42,22.15S297.73,37,273.09,32.29s-51.19,3.15-62.48,18.38c-16.15-9.93-43.73-7.37-64.83,6.19s-43.07,6.33-43.07,6.33L121.77,162c11.33,58.73,70.41,109,129.15,97.64s94.89-79.94,83.56-138.68Z"/><path class="cls-4" d="M247.15,138s-1.93-30.27,28.46-23.23c17.24,4,23.25,13.26,23.25,13.26s-7.44,6.29-15,7.75C276.15,137.27,247.15,138,247.15,138Z"/><path class="cls-4" d="M246.62,85.84s9.8,21,42.44,8.15c4.34-1.71,3.88-15.52-11-8.71C265.92,90.87,254,88.41,246.62,85.84Z"/><path class="cls-4" d="M209.19,145.34s-9.47-28.82-35.05-11c-14.52,10.12-16.65,20.95-16.65,20.95s9.24,3.08,16.78,1.63C182,155.44,209.19,145.34,209.19,145.34Z"/><path class="cls-4" d="M181.69,216.72c14.49-27.55,93.94-42.87,117.64-22.7-3.76-11.29-21.1-29.79-65.26-22.24H234C190.19,181.23,181,204.84,181.69,216.72Z"/><path class="cls-4" d="M190.44,96.68s-1.3,23.1-36.36,23.35c-4.67,0-9.37-13,7-12.16C174.4,108.53,184.59,101.79,190.44,96.68Z"/><path class="cls-1" d="M528.6,104.89s-21.82,7.62-43.17-5.56-49-15.25-64.93-5c-11.56-15-38.25-22.44-62.8-17.27s-42.5-9.39-42.5-9.39l-17.3,99.09c-10.28,58.93,27.08,126.88,86,137.18S501,262.91,511.31,204C515.54,179.79,528.6,104.89,528.6,104.89Z"/><path class="cls-4" d="M423.61,188.92s9-29,34.85-11.59c14.7,9.86,17,20.65,17,20.65s-9.19,3.23-16.75,1.91C451,198.55,423.61,188.92,423.61,188.92Z"/><path class="cls-4" d="M481.52,164.38s-1.71-23.07-36.77-22.7c-4.67,0-9.14,13.13,7.17,12C465.27,152.82,475.58,159.37,481.52,164.38Z"/><path class="cls-4" d="M385.52,182.27s1.39-30.3-28.86-22.71c-17.17,4.3-23,13.66-23,13.66s7.56,6.16,15.11,7.48C356.52,182.06,385.52,182.27,385.52,182.27Z"/><path class="cls-4" d="M458.34,226.13c-23.33,20.59-103,6.67-118-20.61-.5,11.9,9.13,35.34,53.08,44h.09C437.78,256.29,454.78,237.49,458.34,226.13Z"/><path class="cls-4" d="M339.52,139.58s9.43-21.13,42.29-8.9c4.37,1.62,4.15,15.45-10.82,8.89C358.72,134.21,346.81,136.88,339.52,139.58Z"/><rect class="cls-2" y="334.25" width="631.31" height="2.17"/><rect class="cls-2" y="429.05" width="631.31" height="2.16"/></g></g></svg>